<svg xmlns="http://www.w3.org/2000/svg" xmlns:xlink="http://www.w3.org/1999/xlink" width="500" zoomAndPan="magnify" viewBox="0 0 375 374.999991" height="500" preserveAspectRatio="xMidYMid meet" version="1.0"><path stroke-linecap="butt" transform="matrix(0.216747, -0.717998, 0.717998, 0.216747, 39.727568, 247.691117)" fill="none" stroke-linejoin="miter" d="M 0.504984 1.962502 C 55.135193 16.225913 117.85794 16.224216 188.67473 1.962397 " stroke="#f2f1eb" stroke-width="4" stroke-opacity="1" stroke-miterlimit="4"/><path stroke-linecap="butt" transform="matrix(0.672845, -0.331329, 0.331329, 0.672845, 3.369656, 264.978117)" fill="none" stroke-linejoin="miter" d="M 4.618008 1.708596 C -5.015321 28.262678 11.930207 28.264564 55.452219 1.70728 " stroke="#f2f1eb" stroke-width="4" stroke-opacity="1" stroke-miterlimit="4"/><path stroke-linecap="butt" transform="matrix(-0.651229, 0.372023, -0.372023, -0.651229, 154.183895, 182.242152)" fill="none" stroke-linejoin="miter" d="M 0.280344 1.977573 C 138.174552 21.602402 213.020479 21.603382 224.825229 1.978576 " stroke="#f2f1eb" stroke-width="4" stroke-opacity="1" stroke-miterlimit="4"/><path stroke-linecap="butt" transform="matrix(-0.650059, 0.374063, -0.374063, -0.650059, 274.396335, 122.199902)" fill="none" stroke-linejoin="miter" d="M 0.931665 12.525248 C 27.55947 -1.512654 86.956214 -1.507629 179.122579 12.528696 " stroke="#f2f1eb" stroke-width="4" stroke-opacity="1" stroke-miterlimit="4"/><path stroke-linecap="butt" transform="matrix(0.638873, 0.392863, -0.392863, 0.638873, 279.840015, 94.123844)" fill="none" stroke-linejoin="miter" d="M 1.973662 30.533489 C 8.160037 -7.510673 21.677044 -7.513385 42.530139 30.534226 " stroke="#f2f1eb" stroke-width="4" stroke-opacity="1" stroke-miterlimit="4"/><path stroke-linecap="butt" transform="matrix(-0.593986, -0.457908, 0.457908, -0.593986, 302.384896, 165.77164)" fill="none" stroke-linejoin="miter" d="M 1.996519 32.220714 C 2.084632 -8.074616 13.740916 -8.070686 36.977745 32.222963 " stroke="#f2f1eb" stroke-width="4" stroke-opacity="1" stroke-miterlimit="4"/><path stroke-linecap="butt" transform="matrix(0.749994, 0.00293151, -0.00293151, 0.749994, 314.068606, 128.162701)" fill="none" stroke-linejoin="miter" d="M 1.751558 25.130579 C 18.849903 -5.707324 35.511479 -5.709949 51.731098 25.127933 " stroke="#f2f1eb" stroke-width="4" stroke-opacity="1" stroke-miterlimit="4"/><path stroke-linecap="butt" transform="matrix(-0.747803, -0.0573673, 0.0573673, -0.747803, 374.19789, 157.509014)" fill="none" stroke-linejoin="miter" d="M 1.683459 12.639029 C 10.781327 -1.54634 20.29369 -1.544767 30.220151 12.638554 " stroke="#f2f1eb" stroke-width="4" stroke-opacity="1" stroke-miterlimit="4"/></svg>